# xmcd CD database file
#
# Track frame offsets:
#	150
#	20360
#	34830
#	57067
#	83140
#	110082
#	124212
#	144395
#	157395
#	189045
#	209542
#	222157
#
# Disc length: 3237 seconds
#
# Revision: 3
# Processed by: cddbd v1.5.2PL0 Copyright (c) Steve Scherf et al.
# Submitted via: CDex 1.51
#
DISCID=aa0ca30c
DTITLE=Bill Perry - Love Scars
DYEAR=1996
DGENRE=Blues
TTITLE0=Love Scars
TTITLE1=Lost In The Blues
TTITLE2=Fade To Blue
TTITLE3=Down
TTITLE4=Darkness Of Your Love
TTITLE5=Boogie Blues
TTITLE6=Settle Down, Fred
TTITLE7=Smokey Joe
TTITLE8=I'm Leaving You
TTITLE9=In My Lonely Room
TTITLE10=80 West
TTITLE11=Fade To Blue (Reprise)
EXTD=YEAR: 1996
EXTT0=
EXTT1=
EXTT2=
EXTT3=
EXTT4=
EXTT5=
EXTT6=
EXTT7=
EXTT8=
EXTT9=
EXTT10=
EXTT11=
PLAYORDER=
